<svg xmlns="http://www.w3.org/2000/svg" width="1200" height="200" viewBox="0 0 1200 200" role="img" aria-label="riscv-core">
<rect width="1200" height="200" fill="#0f172a"/>
<text x="52" y="83" font-family="ui-monospace, SFMono-Regular, Menlo, Consolas, monospace" font-size="44" font-weight="700" fill="#f8fafc" letter-spacing="-1">riscv-core</text>
<text x="52" y="111" font-family="ui-monospace, SFMono-Regular, Menlo, Consolas, monospace" font-size="15" fill="#cbd5e1">Single-cycle RV32I core with a custom MACC datapath</text>
<text x="52" y="140" font-family="ui-monospace, SFMono-Regular, Menlo, Consolas, monospace" font-size="11" fill="#64748b">8 testbenches - golden check</text>
<rect x="724.0" y="74.0" width="40.0" height="30.0" rx="2" fill="#bfdbfe" fill-opacity="1.00" stroke="#64748b" stroke-width="1"/>
<text x="744.0" y="93.0" font-family="ui-monospace, SFMono-Regular, Menlo, Consolas, monospace" font-size="8" fill="#1a1a1a" text-anchor="middle" font-weight="normal">PC</text>
<rect x="778.0" y="74.0" width="46.0" height="30.0" rx="2" fill="#99f6e4" fill-opacity="1.00" stroke="#64748b" stroke-width="1"/>
<text x="801.0" y="93.0" font-family="ui-monospace, SFMono-Regular, Menlo, Consolas, monospace" font-size="8" fill="#1a1a1a" text-anchor="middle" font-weight="normal">IMEM</text>
<rect x="838.0" y="74.0" width="40.0" height="30.0" rx="2" fill="#bfdbfe" fill-opacity="1.00" stroke="#64748b" stroke-width="1"/>
<text x="858.0" y="93.0" font-family="ui-monospace, SFMono-Regular, Menlo, Consolas, monospace" font-size="8" fill="#1a1a1a" text-anchor="middle" font-weight="normal">dec</text>
<rect x="892.0" y="74.0" width="40.0" height="30.0" rx="2" fill="#99f6e4" fill-opacity="1.00" stroke="#64748b" stroke-width="1"/>
<text x="912.0" y="93.0" font-family="ui-monospace, SFMono-Regular, Menlo, Consolas, monospace" font-size="8" fill="#1a1a1a" text-anchor="middle" font-weight="normal">RF</text>
<rect x="946.0" y="74.0" width="42.0" height="30.0" rx="2" fill="#c7d2fe" fill-opacity="1.00" stroke="#64748b" stroke-width="1"/>
<text x="967.0" y="93.0" font-family="ui-monospace, SFMono-Regular, Menlo, Consolas, monospace" font-size="8" fill="#1a1a1a" text-anchor="middle" font-weight="normal">ALU</text>
<rect x="1002.0" y="74.0" width="50.0" height="30.0" rx="2" fill="#99f6e4" fill-opacity="1.00" stroke="#64748b" stroke-width="1"/>
<text x="1027.0" y="93.0" font-family="ui-monospace, SFMono-Regular, Menlo, Consolas, monospace" font-size="8" fill="#1a1a1a" text-anchor="middle" font-weight="normal">DMEM</text>
<line x1="764.0" y1="89.0" x2="778.0" y2="89.0" stroke="#64748b" stroke-width="1.2"/>
<line x1="824.0" y1="89.0" x2="838.0" y2="89.0" stroke="#64748b" stroke-width="1.2"/>
<line x1="878.0" y1="89.0" x2="892.0" y2="89.0" stroke="#64748b" stroke-width="1.2"/>
<line x1="932.0" y1="89.0" x2="946.0" y2="89.0" stroke="#64748b" stroke-width="1.2"/>
<line x1="988.0" y1="89.0" x2="1002.0" y2="89.0" stroke="#64748b" stroke-width="1.2"/>
<rect x="946.0" y="118.0" width="42.0" height="26.0" rx="2" fill="#c7d2fe" fill-opacity="1.00" stroke="#64748b" stroke-width="1"/>
<text x="967.0" y="135.0" font-family="ui-monospace, SFMono-Regular, Menlo, Consolas, monospace" font-size="8" fill="#1a1a1a" text-anchor="middle" font-weight="normal">MACC</text>
<line x1="967.0" y1="104.0" x2="967.0" y2="118.0" stroke="#64748b" stroke-width="1.2"/>
<path d="M1052 89 L1064 89 L1064 56 L912.0 56 L912.0 74" stroke="#d97706" stroke-width="1.6" fill="none"/>
<text x="930.0" y="52.0" font-family="ui-monospace, SFMono-Regular, Menlo, Consolas, monospace" font-size="8" fill="#d97706" text-anchor="start" font-weight="normal">writeback</text>
</svg>
